<svg xmlns="http://www.w3.org/2000/svg" width="24" height="24" fill="#fff"><path d="M8.818 19c6.502 0 10.058-5.387 10.058-10.058 0-.153 0-.305-.01-.457.692-.5 1.289-1.12 1.764-1.83a7.057 7.057 0 0 1-2.03.556 3.547 3.547 0 0 0 1.553-1.955 7.084 7.084 0 0 1-2.244.858 3.538 3.538 0 0 0-6.024 3.224 10.036 10.036 0 0 1-7.286-3.693 3.538 3.538 0 0 0 1.095 4.719 3.509 3.509 0 0 1-1.605-.443v.045a3.536 3.536 0 0 0 2.836 3.465 3.529 3.529 0 0 1-1.596.061 3.539 3.539 0 0 0 3.303 2.455A7.093 7.093 0 0 1 3.4 17.412a10.007 10.007 0 0 0 5.418 1.585"/></svg>